HIERARCHY
ROOT Hips
{
     OFFSET 6.81106 96.18610 -28.83200
     CHANNELS 6 Xposition Yposition Zposition Zrotation Xrotation Yrotation
     JOINT Spine
     {
          OFFSET -0.00000 11.89050 -0.00000
          CHANNELS 3 Zrotation Xrotation Yrotation
          JOINT Spine1
          {
               OFFSET -0.00000 25.65740 0.12766
               CHANNELS 3 Zrotation Xrotation Yrotation
               JOINT HEad
               {
                    OFFSET -0.00000 8.73416 0.01134
                    CHANNELS 3 Zrotation Xrotation Yrotation
                    End Site
                    {
                         OFFSET -0.29000 12.77420 2.51395
                    }
               }
               JOINT LeftShoulder1
               {
                    OFFSET 8.99000 -0.36225 -0.22000
                    CHANNELS 3 Zrotation Xrotation Yrotation
                    JOINT LeftArm
                    {
                         OFFSET 10.28270 -0.00338 0.32212
                         CHANNELS 3 Zrotation Xrotation Yrotation
                         JOINT LeftForeArm
                         {
                              OFFSET 32.76690 0.09914 -1.42434
                              CHANNELS 3 Zrotation Xrotation Yrotation
                              JOINT LeftHand
                              {
                                   OFFSET 27.56430 0.08536 1.02216
                                   CHANNELS 3 Zrotation Xrotation Yrotation
                                   End Site
                                   {
                                        OFFSET 16.74430 -0.60000 1.50291
                                   }
                              }
                         }
                    }
               }
               JOINT RightShoulder
               {
                    OFFSET -8.99000 -0.36225 -0.22000
                    CHANNELS 3 Zrotation Xrotation Yrotation
                    JOINT RightArm
                    {
                         OFFSET -10.28270 -0.00338 0.32212
                         CHANNELS 3 Zrotation Xrotation Yrotation
                         JOINT RightForeArm
                         {
                              OFFSET -32.89710 0.09914 -1.42434
                              CHANNELS 3 Zrotation Xrotation Yrotation
                              JOINT RightHand
                              {
                                   OFFSET -27.49210 0.08536 1.02216
                                   CHANNELS 3 Zrotation Xrotation Yrotation
                                   End Site
                                   {
                                        OFFSET -16.63120 -0.60000 1.50291
                                   }
                              }
                         }
                    }
               }
          }
     }
     JOINT LeftUpLeg
     {
          OFFSET 8.94580 -8.66707 0.10165
          CHANNELS 3 Zrotation Xrotation Yrotation
          JOINT LeftLeg
          {
               OFFSET -0.00000 -44.42270 1.37270
               CHANNELS 3 Zrotation Xrotation Yrotation
               JOINT LeftFoot
               {
                    OFFSET -0.25355 -42.09240 -1.46059
                    CHANNELS 3 Zrotation Xrotation Yrotation
                    JOINT LeftToes
                    {
                         OFFSET -0.04000 -4.41509 8.49910
                         CHANNELS 3 Zrotation Xrotation Yrotation
                         End Site
                         {
                              OFFSET 0.08000 -0.04745 9.77979
                         }
                    }
               }
          }
     }
     JOINT RightUpLeg
     {
          OFFSET -8.94580 -8.66707 0.10165
          CHANNELS 3 Zrotation Xrotation Yrotation
          JOINT RightLeg
          {
               OFFSET 0.00000 -44.42270 1.37270
               CHANNELS 3 Zrotation Xrotation Yrotation
               JOINT RightFoot
               {
                    OFFSET 0.25355 -42.09240 -1.46059
                    CHANNELS 3 Zrotation Xrotation Yrotation
                    JOINT RightToes
                    {
                         OFFSET 0.04000 -4.41509 8.49910
                         CHANNELS 3 Zrotation Xrotation Yrotation
                         End Site
                         {
                              OFFSET -0.08000 -0.13745 9.77979
                         }
                    }
               }
          }
     }
}
MOTION
Frames: 15
Frame Time: 0.01667
45.81070 98.57010 -45.93440 -30.21880 -23.94480 -95.33210 -32.27230 15.71490 5.10739 -23.61890 30.59720 3.58843 -11.49170 16.04790 19.77900 -0.00000 0.00000 -0.00000 -175.00400 -59.42280 -158.60899 -92.87840 61.19800 -32.22070 15.87680 6.31612 -22.38240 14.27030 1.47055 6.04375 87.44960 -18.32740 78.97810 10.34190 33.24290 94.99230 8.63210 11.26660 12.52870 26.58490 -32.36590 43.98020 58.16550 78.32810 -34.07180 -37.87460 20.45100 9.42794 -21.97210 71.65150 8.16566 -41.41070 16.95700 28.25900 36.85700 -2.86306 -34.26940 -23.60820 -8.23870 -0.29797 0.04620 0.00053 0.66264 
45.46740 98.23300 -46.56330 -32.95050 -23.32060 -95.67940 -29.72530 16.05020 5.02016 -25.23960 31.18560 5.05685 -10.47830 17.04660 19.59200 -0.00000 0.00000 -0.00000 179.88400 -60.40780 -162.61000 -92.05050 61.68180 -33.30370 16.08570 6.25752 -22.44170 15.54960 1.69316 6.77064 86.42200 -18.28970 77.84580 11.06600 32.99790 94.45950 9.42410 11.38910 12.60270 30.24950 -36.12030 53.42290 92.23620 65.36760 -61.17830 -58.10680 12.51420 10.99630 -67.64150 58.15050 69.60490 -40.88090 20.01160 29.17510 36.70140 -2.87607 -33.86230 -24.00830 -8.46155 -0.34954 0.04620 0.00053 0.66264 
44.86860 97.81280 -46.75190 -35.65180 -22.23450 -95.82190 -25.73610 16.27060 4.24851 -26.50750 31.54890 6.29167 -9.75257 17.99190 19.59610 -0.00000 0.00000 -0.00000 174.25700 -60.77130 -166.94200 -92.04580 61.98580 -33.63520 16.44700 6.12216 -22.77410 16.87100 1.94804 7.55601 85.45890 -18.32640 76.82430 11.28690 32.93660 94.45150 10.16380 11.50810 12.70940 34.48790 -38.51590 62.67880 100.83000 52.03440 -60.08910 -74.25400 10.18220 13.25660 -66.41570 44.67660 78.99400 -40.24320 23.36650 29.87570 36.60980 -2.89403 -33.20170 -24.55370 -8.59423 -0.38370 0.04620 0.00053 0.66264 
44.17180 97.19710 -46.68940 -38.13840 -21.49030 -95.88010 -22.00630 16.37150 3.16100 -27.54010 31.72210 7.29534 -9.24135 18.81220 19.74690 -0.00000 0.00000 -0.00000 168.70900 -60.54230 -171.09500 -92.86870 62.09520 -33.19120 16.93280 5.91516 -23.36150 18.05710 2.19802 8.28316 84.74930 -18.32060 75.97040 11.03940 32.99970 94.87830 10.78170 11.61170 12.82930 39.23190 -40.60100 71.42840 105.34000 41.89770 -58.90000 -80.85430 9.66119 14.47330 -63.48330 40.44740 79.57710 -40.15010 26.48060 30.66670 36.55190 -2.90778 -32.68140 -25.23530 -8.66277 -0.40560 0.04620 0.00053 0.66264 
43.43640 96.16830 -46.53920 -40.38480 -21.88610 -96.35310 -20.38210 16.45320 2.63295 -28.76230 31.89440 8.13901 -8.83734 19.48230 19.91490 -0.00000 0.00000 -0.00000 163.99300 -59.84090 -174.44200 -94.40860 61.99620 -32.02210 17.48410 5.65708 -24.13130 18.96150 2.40379 8.85695 84.46490 -18.22900 75.32550 10.58110 33.13150 95.51690 11.22700 11.69030 12.94400 43.37510 -42.44910 78.87900 108.72600 35.02430 -60.17710 -81.78040 9.08560 14.22890 -62.64200 41.01050 78.20400 -39.69710 26.11770 30.06110 36.61750 3.66655 -34.06080 -24.27270 -11.56380 -1.05030 0.04620 0.00053 0.66264 
42.78790 95.36270 -46.29770 -42.16720 -22.56270 -96.58780 -19.29530 16.49860 2.11883 -29.81360 32.00120 8.73183 -8.47363 20.03400 19.96260 -0.00000 0.00000 -0.00000 160.71899 -58.89070 -176.50101 -96.38990 61.71080 -30.32780 18.02220 5.38461 -24.95710 19.52690 2.54380 9.24461 84.67030 -18.08210 74.91700 10.23860 33.30200 96.11060 11.46750 11.73750 13.04780 46.56830 -43.86860 84.36270 111.11800 30.77250 -62.28630 -80.75010 8.43485 13.44090 -62.31490 43.18560 75.97460 -39.93050 26.00380 29.94150 36.99110 8.39857 -35.38430 -23.80480 -13.77610 -1.52583 0.04620 0.00053 0.66264 
42.28990 94.80970 -46.03980 -43.31720 -23.34980 -96.46400 -18.64650 16.52770 1.69711 -30.55690 32.07290 9.05680 -8.16962 20.53210 19.82660 -0.00000 0.00000 -0.00000 159.12601 -57.95730 -177.11700 -98.39870 61.31590 -28.46660 18.46410 5.14524 -25.68710 19.78020 2.62093 9.47713 85.30800 -17.93190 74.76060 10.20080 33.49800 96.49290 11.49210 11.75190 13.14690 48.43050 -44.90440 87.92880 112.66900 28.29140 -63.94380 -79.98270 8.03177 12.93450 -61.89170 45.11990 73.87610 -40.38190 26.04010 30.00540 37.38230 11.44170 -36.60690 -23.52530 -15.31500 -1.85054 0.04620 0.00053 0.66264 
41.96760 94.52080 -45.82550 -43.72380 -24.03490 -95.92940 -18.32030 16.55130 1.41949 -30.86370 32.11980 9.11333 -8.01270 21.02940 19.54950 -0.00000 0.00000 -0.00000 159.07201 -57.26380 -176.46001 -99.99020 60.92460 -26.87030 18.73590 4.98504 -26.19240 19.78420 2.65372 9.62322 86.24760 -17.79930 74.85880 10.40650 33.69630 96.65060 11.31380 11.73540 13.24740 49.01640 -45.56800 89.82870 113.43100 27.01120 -64.68300 -80.15580 7.97859 12.93060 -61.80060 45.97510 73.05900 -40.72890 26.21790 30.02840 37.61860 12.80640 -37.52270 -23.29390 -16.16160 -2.02037 0.04620 0.00053 0.66264 
41.80400 94.49700 -45.68200 -43.38550 -24.44900 -95.02690 -18.24040 16.56440 1.31432 -30.67070 32.13740 8.91606 -8.08525 21.52620 19.23830 -0.00000 0.00000 -0.00000 160.19400 -56.94170 -174.87199 -100.82400 60.63640 -25.91260 18.78680 4.93401 -26.40830 19.59390 2.66178 9.75052 87.34510 -17.65660 75.19170 10.60590 33.85530 96.68830 10.96800 11.69200 13.34020 48.57730 -45.77580 90.23750 113.44800 26.70710 -64.44000 -81.23660 8.28731 13.43370 -62.39510 45.52760 74.07270 -40.79910 26.49870 29.88380 37.64840 12.65460 -37.97040 -23.04880 -16.39320 -2.05151 0.04620 0.00053 0.66264 
41.75810 94.73180 -45.60260 -42.40930 -24.53100 -93.87150 -18.39520 16.55400 1.39101 -30.00890 32.11710 8.49676 -8.38492 21.95480 18.98100 -0.00000 0.00000 -0.00000 162.10100 -57.01390 -172.71001 -100.77100 60.48880 -25.78090 18.60460 4.99557 -26.34710 19.24620 2.65593 9.89314 88.47300 -17.45080 75.71020 10.53930 33.92870 96.72920 10.50940 11.62700 13.39620 47.34240 -45.39790 89.17030 112.77000 27.41990 -63.28090 -83.00790 8.92578 14.40010 -63.32940 43.85720 76.47610 -40.62690 26.91620 29.63360 37.47170 11.05160 -37.85540 -22.80650 -16.05560 -1.95895 0.04620 0.00053 0.66264 
41.78810 95.20930 -45.55370 -40.95670 -24.33480 -92.59730 -18.83010 16.50930 1.64391 -28.99270 32.05180 7.90813 -8.78990 22.20240 18.77290 -0.00000 0.00000 -0.00000 164.49899 -57.39320 -170.22800 -99.96810 60.45250 -26.40160 18.23070 5.14489 -26.07690 18.77190 2.63623 10.03910 89.53170 -17.14350 76.34250 10.10190 33.88920 96.82690 10.00900 11.54850 13.38100 45.44900 -44.35240 86.53710 111.43100 29.35640 -61.32490 -85.16950 9.84454 15.76250 -63.89760 41.33910 79.23160 -40.29870 27.35410 29.34420 37.19150 8.42743 -37.29430 -22.52110 -15.35700 -1.78806 0.04620 0.00053 0.66264 
41.86780 95.90260 -45.48630 -39.18110 -23.98570 -91.30580 -19.61450 16.42450 2.05335 -27.77790 31.93730 7.22172 -9.09977 22.16350 18.50180 -0.00000 0.00000 -0.00000 167.22701 -57.90230 -167.54500 -98.76680 60.47740 -27.46410 17.76450 5.33719 -25.68330 18.20880 2.59637 10.14030 90.45490 -16.73820 77.01640 9.38125 33.74530 96.95140 9.54358 11.46760 13.27840 43.00260 -42.67170 82.24810 109.43000 32.81850 -58.85170 -87.16910 10.95960 17.33330 -63.80930 38.70790 81.44720 -40.05960 27.88600 29.24030 36.86220 4.75699 -36.36310 -22.25380 -14.28170 -1.54357 0.04620 0.00053 0.66264 
41.99060 96.77260 -45.34840 -37.19060 -23.61860 -90.04660 -20.80480 16.30150 2.58522 -26.51230 31.77190 6.51678 -9.13062 21.78310 17.99960 -0.00000 0.00000 -0.00000 170.21001 -58.32680 -164.67999 -97.60150 60.54450 -28.54970 17.33890 5.52319 -25.23520 17.60410 2.52986 10.13660 91.21400 -16.27900 77.68110 8.56277 33.54320 97.04750 9.17372 11.39540 13.09900 40.18540 -40.50950 76.30480 106.70900 38.16420 -56.55700 -87.94840 12.04260 18.56600 -63.62080 37.00290 82.77920 -40.30110 28.77460 29.66540 36.59530 -0.50034 -35.04680 -22.24210 -12.58650 -1.18935 0.04620 0.00053 0.66264 
42.14460 97.48760 -45.14180 -35.03420 -23.72840 -89.11610 -23.23590 16.20480 3.57002 -25.48870 31.64320 5.91449 -8.80502 21.06220 17.13010 -0.00000 0.00000 -0.00000 173.39400 -58.48160 -161.62700 -96.83090 60.67170 -29.29540 17.07010 5.66639 -24.77030 17.00470 2.43500 9.98464 91.81140 -15.82810 78.31530 7.78949 33.34710 97.10720 8.92389 11.33830 12.87110 37.07690 -38.15290 68.95250 103.26500 45.69880 -55.52680 -85.95620 12.82380 18.63770 -64.61140 37.56070 83.28710 -40.53670 27.96840 29.61000 36.47470 -2.86490 -34.47870 -21.35350 -12.11590 -1.05509 0.04620 0.00053 0.66264 
42.34040 97.87640 -44.85770 -32.67110 -24.36630 -88.45410 -26.85380 16.08060 4.88564 -24.55460 31.47840 5.41541 -8.18415 20.03660 15.85860 -0.00000 0.00000 -0.00000 176.68201 -58.26320 -158.41299 -96.64410 60.87310 -29.49930 17.00490 5.75530 -24.29820 16.44390 2.31698 9.68069 92.26580 -15.44140 78.92140 7.08467 33.20790 97.19360 8.78179 11.29630 12.62230 34.12380 -35.98730 60.57670 98.67630 55.66160 -56.95120 -78.76240 13.08630 16.65810 -68.15990 42.47620 82.59700 -40.89190 25.70200 29.21410 36.27370 -2.86585 -34.58820 -19.76550 -12.53580 -1.06784 0.04620 0.00053 0.66264 
